PathFileType	4	(X/Y/Z)	 s06c0302.trc
DataRate	CameraRate	NumFrames	NumMarkers	Units	OrigDataRate	OrigDataStartFrame	OrigNumFrames
200	200	5	48	mm	200	1501	2000
Frame#	Time	racr			lacr			c7			jug			rlel			rdr			llel			ldr			s2			lic			ric			lasi			rasi			rpsi			lpsi			rgt			lgt			rth1			rth2			rth3			rth4			rlfc			rmfc			rsh1			rsh2			rsh3			rsh4			rlmal			rcal			rtoe			rmt5			lth1			lth2			lth4			lth3			llfc			lmfc			llmal			lcal			lmt5			lsh1			lsh2			lsh3			lsh4			ltoe			SBIKE			LBIKE			RBIKE			
		X1	Y1	Z1	X2	Y2	Z2	X3	Y3	Z3	X4	Y4	Z4	X5	Y5	Z5	X6	Y6	Z6	X7	Y7	Z7	X8	Y8	Z8	X9	Y9	Z9	X10	Y10	Z10	X11	Y11	Z11	X12	Y12	Z12	X13	Y13	Z13	X14	Y14	Z14	X15	Y15	Z15	X16	Y16	Z16	X17	Y17	Z17	X18	Y18	Z18	X19	Y19	Z19	X20	Y20	Z20	X21	Y21	Z21	X22	Y22	Z22	X23	Y23	Z23	X24	Y24	Z24	X25	Y25	Z25	X26	Y26	Z26	X27	Y27	Z27	X28	Y28	Z28	X29	Y29	Z29	X30	Y30	Z30	X31	Y31	Z31	X32	Y32	Z32	X33	Y33	Z33	X34	Y34	Z34	X35	Y35	Z35	X36	Y36	Z36	X37	Y37	Z37	X38	Y38	Z38	X39	Y39	Z39	X40	Y40	Z40	X41	Y41	Z41	X42	Y42	Z42	X43	Y43	Z43	X44	Y44	Z44	X45	Y45	Z45	X46	Y46	Z46	X47	Y47	Z47	X48	Y48	Z48	
1501	7.5050	743.480970	1186.541360	-47.413005	782.841915	1184.463607	-347.258773	800.539908	1247.826953	-195.970959	720.912400	1099.140830	-204.249740	566.027128	1040.262378	81.077412	717.742121	924.402287	-34.761630	596.680284	1080.154009	-517.742076	718.872393	928.027295	-415.365073	226.878897	1259.895255	-271.714296	379.860595	1151.877204	-399.044899	319.594057	1166.784183	-78.087514	369.505661	1095.377311	-361.250679	337.000901	1111.905306	-108.219684	257.326105	1269.609324	-225.399987	267.387968	1267.519401	-285.136910	270.265177	1110.174810	-50.715478	336.619368	1098.271045	-433.371430	326.147869	991.220219	-27.715605	381.893031	920.101849	-23.128603	395.374573	833.682217	-28.523678	414.946707	935.106236	-36.065107	419.865627	728.025023	-39.535793	421.098207	704.414705	-147.576129	375.991586	611.914732	-19.606412	372.052357	526.562240	-39.957070	327.897229	452.567797	-47.850170	398.880820	523.432818	-69.557057	294.804559	379.951647	-54.778263	230.619245	367.296866	-105.245359	487.613441	264.865580	-94.108244	387.328153	277.858250	-27.902010	357.725409	978.818207	-441.873507	408.608935	910.144768	-425.042483	437.548933	923.765743	-406.282774	420.405670	821.594053	-421.310549	411.040936	706.787042	-392.023055	398.220905	694.554604	-279.797027	108.203508	495.004296	-376.314080	56.654919	542.818143	-331.023670	92.566442	346.052667	-396.161012	330.120785	634.942431	-414.492202	273.708823	573.194129	-391.009717	190.562649	540.970424	-390.374848	290.087188	557.463124	-358.772377	130.788884	269.503536	-335.058301	-203.427927	868.466804	-201.941982	-51.672731	84.701829	-410.224502	-50.238133	80.444132	-13.269946	
1502	7.5100	743.200545	1186.451668	-48.853835	781.255925	1184.508365	-348.603223	799.706394	1248.241796	-197.411996	720.528418	1099.277648	-205.330172	566.664875	1039.765517	81.106752	718.732496	923.545329	-34.477893	595.103319	1079.010471	-518.096412	718.670848	927.805125	-415.207502	224.893728	1258.148197	-268.594327	377.806369	1152.289768	-398.579973	319.007472	1163.010209	-77.782561	367.658186	1095.240978	-360.812278	335.307908	1108.183756	-108.634840	255.648856	1267.787608	-222.494266	265.212905	1266.508684	-282.088760	268.371936	1106.129237	-50.048275	335.493021	1100.035264	-432.354882	322.032384	986.124867	-27.420512	376.365388	913.759356	-23.880561	387.691315	826.929725	-30.010463	409.350002	927.783242	-36.628359	411.347261	722.391870	-41.118612	411.624075	698.853726	-149.557746	368.649842	605.110620	-20.119822	366.137882	519.604107	-39.984940	323.290659	444.847354	-47.558868	393.210674	516.608440	-69.301926	292.044649	370.512450	-54.097486	228.382097	358.243329	-104.797147	484.479493	253.613648	-94.021494	384.309478	267.289390	-27.847391	359.854693	981.621175	-442.481372	412.385011	914.566372	-424.985714	440.494624	928.930603	-405.544972	426.852264	826.310306	-421.597573	418.900186	711.587149	-392.928279	405.933183	699.522815	-280.579018	112.452084	505.192011	-376.285183	60.846293	553.011771	-330.893165	96.162139	356.168877	-395.874044	337.400366	640.225915	-415.030417	279.890036	579.641813	-390.960898	196.334190	548.716433	-390.332587	295.971758	564.092106	-358.498592	134.278008	279.462518	-334.927362	-203.298985	868.420799	-201.734105	-51.575151	84.713482	-410.179702	-50.134932	80.292246	-13.245733	
1503	7.5150	742.782304	1186.962562	-50.285322	779.544290	1184.732821	-350.016785	798.582869	1248.826335	-198.921951	719.859677	1099.560572	-206.042521	567.528850	1039.602111	81.376830	719.228352	922.976442	-34.457898	593.441261	1077.701727	-518.514339	718.546727	927.685356	-414.895674	222.774037	1256.215800	-265.525548	375.610635	1152.688530	-398.104999	318.352572	1159.892220	-77.213252	365.890207	1095.288335	-360.489527	334.155507	1105.226055	-108.619344	254.042432	1265.788929	-219.584131	263.081737	1265.374523	-279.269683	266.357352	1102.232402	-49.366173	334.241747	1101.796489	-431.373463	317.849968	981.256002	-27.277034	370.159072	907.575084	-24.256897	379.919460	820.415285	-30.939653	403.716054	921.008826	-37.013976	402.100259	716.684453	-42.628827	401.695532	692.890629	-151.408197	361.334205	598.196512	-20.643328	360.126180	512.618995	-40.032153	318.359915	437.221619	-47.412504	387.271740	509.806448	-69.295028	289.623360	360.581139	-55.040941	225.851496	349.810806	-104.638287	480.788766	242.144095	-94.049099	380.827886	257.009305	-27.888397	361.548017	984.568408	-442.696726	415.848106	919.135002	-424.884689	443.254870	934.165756	-405.007359	432.813688	831.207285	-421.973116	426.821319	716.757837	-393.850640	413.503177	704.416445	-281.338130	116.929484	515.132551	-376.077922	65.557161	563.061301	-330.651642	100.416683	366.088926	-395.639472	344.901195	645.438120	-415.417821	286.188115	585.977835	-390.722731	202.280959	556.463559	-390.048194	301.968352	570.474452	-357.667764	138.387866	289.481611	-334.976030	-203.184605	868.418012	-201.441980	-51.520322	84.752324	-410.110169	-50.063031	80.205380	-13.208550	
1504	7.5200	742.262168	1187.700763	-51.760183	777.656785	1185.132423	-351.567809	797.096861	1249.651997	-200.467351	718.636029	1100.243505	-207.258072	568.545608	1039.805680	81.800549	719.605149	922.728750	-34.884804	591.648319	1076.489344	-519.016937	715.673570	927.194176	-412.254224	220.542511	1254.132129	-262.571668	373.136471	1153.070835	-397.570526	317.694460	1156.857916	-76.740675	364.139139	1095.482361	-360.317465	332.986821	1102.375369	-108.729828	252.218149	1263.994908	-216.812607	261.000234	1264.488118	-277.250749	264.504859	1098.527677	-48.788213	332.700781	1103.615005	-430.423956	313.612062	976.574768	-27.290070	364.034289	901.528170	-24.797525	372.529895	814.478114	-31.366341	397.963565	914.279050	-37.462400	392.260052	710.680394	-44.046574	391.828045	686.601372	-152.704706	353.844874	591.265538	-21.068234	354.043384	505.581499	-40.261704	313.308196	429.536227	-47.326004	380.957013	503.072510	-69.801192	286.570597	351.755382	-55.017804	222.805522	341.763560	-104.638419	476.502744	230.920328	-94.023809	376.712319	247.126189	-27.935393	362.845418	987.666035	-442.364613	419.070074	923.723068	-424.850638	445.976329	939.362769	-405.098719	438.529815	836.317804	-422.119751	434.616428	722.164784	-394.608447	421.266457	709.856293	-282.644769	122.007543	524.579831	-375.899162	70.427168	572.828564	-330.271210	105.191590	375.869908	-395.470936	352.408728	650.712154	-415.610792	292.772715	592.401590	-390.397433	208.444983	564.230956	-389.516314	308.241227	577.235985	-357.157027	143.117729	299.101824	-334.701591	-203.139334	868.482310	-201.134485	-51.508611	84.808323	-410.046801	-50.014068	80.224945	-13.136178	
1505	7.5250	741.616794	1188.824193	-53.251995	775.665992	1185.605096	-353.124627	795.253493	1250.773663	-201.940976	717.492622	1100.775567	-208.529031	569.699856	1040.212806	82.419586	719.492786	922.454809	-34.766090	589.542876	1075.120251	-519.416250	715.260296	927.209179	-411.715731	218.221835	1251.931245	-259.796393	370.622663	1153.397611	-397.088246	317.062823	1154.044591	-74.844399	362.345336	1095.817809	-360.135017	333.515748	1100.162904	-107.289862	250.422464	1261.954502	-214.113181	258.691187	1263.415710	-275.046977	263.068886	1094.712818	-48.870517	330.830392	1105.504840	-429.512333	309.451511	971.844536	-27.481309	358.155427	895.535382	-25.217501	364.051714	808.383855	-32.342731	392.101532	907.530039	-37.804253	382.072933	704.207312	-45.097267	382.088943	679.443405	-153.363065	346.633217	584.078142	-21.741662	347.797217	498.284176	-40.540692	308.095194	421.756238	-47.473105	374.319011	496.552412	-71.368715	283.007196	343.441553	-54.980989	219.471104	334.380550	-104.457780	471.603429	219.905189	-94.037900	371.975613	237.474172	-27.963391	363.760429	990.865378	-441.660098	422.040124	928.506548	-424.979602	448.891613	944.734222	-404.678005	443.826305	841.552503	-422.189820	442.376059	727.883304	-395.434111	434.686738	716.218381	-280.458265	127.632033	533.929512	-375.929948	75.577131	582.238516	-329.969665	110.709663	385.464294	-395.238975	359.848387	656.271415	-415.362130	299.445757	599.101075	-390.012532	214.772684	571.957729	-389.019793	314.623763	584.137244	-356.488553	148.515066	308.785182	-334.669011	-203.172625	868.539226	-200.860796	-51.535452	84.912660	-409.979569	-49.997666	80.180266	-13.120461	
